{"asset":{"version":"2.0","generator":"THREE.GLTFExporter"},"scenes":[{"nodes":[0],"name":"AuxScene"}],"scene":0,"nodes":[{"mesh":0}],"bufferViews":[{"buffer":0,"byteOffset":0,"byteLength":52740,"target":34962,"byteStride":12},{"buffer":0,"byteOffset":52740,"byteLength":52740,"target":34962,"byteStride":12}],"buffers":[{"byteLength":105480,"uri":"data:application/octet-stream;base64,"}],"accessors":[{"bufferView":0,"componentType":5126,"count":4395,"max":[100.81192016601562,4.595970153808594,100.61190795898438],"min":[-100.78809356689453,0.19596900045871735,-100.98809814453125],"type":"VEC3"},{"bufferView":1,"componentType":5126,"count":4395,"max":[0.9486857056617737,1,0.9732961654663086],"min":[-0.9622841477394104,0.031496670097112656,-0.9704959392547607],"type":"VEC3"}],"materials":[{"pbrMetallicRoughness":{"baseColorFactor":[0.5019607843137255,0.5019607843137255,0.5019607843137255,1],"metallicFactor":0,"roughnessFactor":1}}],"meshes":[{"primitives":[{"mode":4,"attributes":{"POSITION":0,"NORMAL":1},"material":0}]}]}